<?xml version="1.0" standalone="no"?>
<!DOCTYPE svg PUBLIC "-//W3C//DTD SVG 20010904//EN"
 "http://www.w3.org/TR/2001/REC-SVG-20010904/DTD/svg10.dtd">
<svg version="1.0" xmlns="http://www.w3.org/2000/svg"
 width="1250.000000pt" height="1250.000000pt" viewBox="0 0 1250.000000 1250.000000"
 preserveAspectRatio="xMidYMid meet">
<metadata>
Created by potrace 1.11, written by Peter Selinger 2001-2013
</metadata>
<g transform="translate(0.000000,1250.000000) scale(0.100000,-0.100000)"
fill="#000000" stroke="none">
<path d="M1190 9495 l0 -65 515 0 515 0 -3 -2907 c-4 -3128 -1 -2949 -52
-3143 -71 -272 -283 -439 -555 -440 -149 0 -274 38 -351 108 -80 72 -109 152
-109 300 0 106 18 180 90 372 36 97 65 195 71 237 33 236 -116 439 -356 484
-73 14 -249 5 -325 -15 -273 -75 -424 -314 -407 -646 7 -132 31 -230 83 -333
54 -107 89 -154 194 -257 243 -239 571 -360 1025 -377 419 -16 750 72 1019
270 271 200 458 521 540 928 63 311 59 129 63 2897 l4 2522 514 0 515 0 0 65
0 65 -1495 0 -1495 0 0 -65z"/>
<path d="M4630 9495 l0 -65 515 0 515 0 0 -3175 0 -3175 -515 0 -515 0 0 -65
0 -65 1100 0 1100 0 0 65 0 65 -515 0 -515 0 0 3115 c0 1821 4 3115 9 3115 12
0 -121 378 1118 -3190 602 -1735 1098 -3158 1102 -3162 4 -5 488 1386 1076
3090 1227 3557 1145 3322 1156 3322 5 0 9 -1371 9 -3145 l0 -3145 -515 0 -515
0 0 -65 0 -65 1495 0 1495 0 0 65 0 65 -515 0 -515 0 0 3175 0 3175 515 0 515
0 0 65 0 65 -1027 -2 -1028 -3 -857 -2490 c-471 -1369 -861 -2491 -866 -2493
-6 -2 -17 19 -26 45 -9 26 -396 1148 -859 2493 l-843 2445 -1047 3 -1047 2 0
-65z"/>
</g>
</svg>
